<svg width="173" height="37" viewBox="0 0 173 37" fill="none" xmlns="http://www.w3.org/2000/svg">
<path d="M12.3327 16.4459C12.3327 15.6588 12.3327 14.8303 12.4157 14.0433C12.4987 12.9662 12.6232 12.7591 14.0345 12.5934C16.1514 12.3448 18.3097 12.262 20.4681 12.262V14.3332C18.5173 14.3747 16.5664 14.4575 14.6571 14.5818C14.4081 14.5818 14.325 14.7061 14.325 14.8303C14.2835 15.2446 14.2835 15.866 14.2835 16.4459C14.2835 17.0259 14.325 17.6473 14.325 18.0615C14.325 18.2272 14.4081 18.3101 14.6571 18.3101C17.2306 18.5172 19.887 18.5586 22.5435 18.6001V16.2388H24.6189V18.6001C27.2753 18.6001 29.9318 18.5172 32.5052 18.3101C32.7543 18.2687 32.8373 18.1858 32.8373 18.0615C32.8788 17.6473 32.8788 17.0259 32.8788 16.4459C32.8788 15.866 32.8373 15.2446 32.8373 14.8303C32.8373 14.6646 32.7543 14.5818 32.5052 14.5818C30.5959 14.4575 28.6451 14.3747 26.6942 14.3332V12.262C28.8111 12.3034 30.8865 12.3862 33.1279 12.5934C34.5391 12.7591 34.6636 12.9662 34.7466 14.0433C34.8297 14.8303 34.8297 15.6588 34.8297 16.4459C34.8297 17.233 34.8297 18.0615 34.7466 18.8486C34.6636 19.9257 34.5391 20.1328 33.1279 20.2985C29.9733 20.5885 26.7772 20.7128 23.5812 20.6713C20.3851 20.7542 17.1891 20.6299 14.0345 20.2985C12.6232 20.1328 12.4987 19.9257 12.4157 18.8486C12.3742 18.0201 12.3327 17.233 12.3327 16.4459ZM20.5096 26.678C17.6041 26.678 14.6986 26.4709 11.7931 26.0567C9.5102 25.7667 7.64237 24.1511 6.97826 21.9555L4.81988 22.3698C5.77455 25.4353 7.93292 27.548 11.212 28.1279C14.7401 28.7493 19.6795 28.7907 23.6227 28.7907C27.5659 28.7907 32.5052 28.7493 36.0334 28.1279C39.354 27.548 41.5123 25.3938 42.4255 22.2869L40.2671 21.9141C39.6445 24.1511 37.7352 25.8081 35.4108 26.0981C31.6751 26.678 27.3583 26.7195 23.5812 26.7609H22.5435V24.7725H23.5812C27.3998 24.8553 31.2185 24.6482 35.0372 24.1511C37.0295 23.8611 38.2332 22.3698 38.5653 20.5056C38.7728 19.18 38.8559 17.813 38.8974 16.4459C38.8559 15.0789 38.7728 13.7118 38.5653 12.3862C38.2332 10.5221 37.0295 8.98934 35.0372 8.74079C33.6674 8.53366 32.2562 8.40938 30.8034 8.32653V6.33811C32.3807 6.42096 33.9165 6.58666 35.4108 6.79379C37.9427 7.16662 39.8105 8.90649 40.4331 11.5577C40.4746 11.7234 40.5162 11.8477 40.5162 12.0134L42.633 11.6406C42.5915 11.3506 42.5085 11.102 42.4255 10.8121C41.5123 7.6223 39.3539 5.42674 35.9919 4.80536C32.5052 4.14255 27.6074 4.10113 23.6227 4.10113C19.638 4.10113 14.7401 4.14255 11.212 4.76394C7.84991 5.34389 5.65002 7.58087 4.77837 10.7706C4.32179 12.3862 4.23878 14.7061 4.19727 16.4459C4.23878 17.6058 4.28028 19.0557 4.44631 20.3814L6.56318 20.0085C6.39716 18.8486 6.31414 17.6473 6.31414 16.4459C6.31414 15.7831 6.35565 14.8718 6.43866 13.919L8.47252 14.2504C8.43101 14.9546 8.3895 15.7003 8.348 16.4459C8.3895 17.813 8.47252 19.18 8.68006 20.5056C9.01211 22.3698 10.2158 23.9025 12.2082 24.1511C14.2835 24.4411 16.3589 24.6068 18.4758 24.6482V22.4941C16.691 22.4112 14.9061 22.3284 13.2459 22.1212C11.5856 21.9141 10.7139 21.417 10.5479 19.6771C10.4649 18.7243 10.4234 17.4401 10.4234 16.4045C10.4234 15.3689 10.4649 14.0847 10.5479 13.1319C10.7139 11.3506 11.5856 10.8535 13.2459 10.6878C16.691 10.3564 20.1776 10.1907 23.6642 10.2321C24.6604 10.2321 25.698 10.2321 26.7772 10.2735V8.1194C25.7396 8.1194 24.7019 8.07798 23.6642 8.07798C19.8455 7.99513 16.0268 8.20225 12.2082 8.69936C10.2988 8.94791 9.09513 10.3978 8.72156 12.1791L6.72921 11.8477C6.77072 11.7234 6.77072 11.6406 6.81223 11.5163C7.43484 8.86506 9.30267 7.12519 11.8346 6.75236C15.5703 6.1724 19.887 6.13098 23.6642 6.08955C25.3245 6.08955 27.0678 6.08955 28.8526 6.1724V10.315C30.6374 10.3978 32.4222 10.4807 34.0825 10.6878C35.7428 10.8949 36.6145 11.3506 36.7805 13.1319C36.8635 14.0847 36.905 15.3689 36.905 16.4045C36.905 17.4401 36.8635 18.7243 36.7805 19.6771C36.6145 21.4584 35.7428 21.9555 34.0825 22.1212C30.6374 22.4526 27.1508 22.6183 23.6642 22.5769C22.668 22.5769 21.6303 22.5769 20.5511 22.5355L20.5096 26.678ZM44.8329 20.6299C44.7084 21.3756 44.5424 22.1212 44.3348 22.8669C43.2556 26.4295 40.3916 29.3707 36.6145 30.0335C32.4637 30.7792 27.8149 30.8206 23.5812 30.8206C20.1361 30.862 16.691 30.7377 13.2874 30.4063L13.1213 31.6905L12.5402 35.9574L14.6156 36.2473L15.1137 32.6019C17.9777 32.809 20.8832 32.8504 23.6227 32.8504C28.064 32.8504 32.9618 32.7676 37.2786 31.9805C41.7199 31.1934 44.9574 27.8794 46.3272 23.6954C47.0743 21.417 47.2403 18.8072 47.2403 16.4045C47.2403 14.0018 47.0743 11.4334 46.3272 9.11362C44.9574 4.97106 41.7199 1.65702 37.2786 0.869936C32.9618 0.124277 28.0225 0 23.6227 0C19.2229 0 14.2835 0.124277 9.96678 0.869936C5.5255 1.65702 2.28793 4.97106 0.918192 9.15504C0.171061 11.4334 0.0465388 14.0433 0.00503146 16.4459C-0.0364758 18.8486 0.171061 21.417 0.918192 23.7368C2.28793 27.9208 5.5255 31.2348 9.96678 32.0219C10.2988 32.0634 10.6309 32.1462 10.963 32.1876L11.2535 30.1578L10.5894 30.0335C6.85373 29.3707 3.94822 26.4295 2.86903 22.8669C2.24643 20.7956 2.16341 18.6001 2.16341 16.4045C2.16341 14.209 2.24643 12.0548 2.86903 9.94213C3.94822 6.42096 6.85373 3.52117 10.5894 2.85836C14.7401 2.1127 19.3889 2.07128 23.6227 2.07128C27.8564 2.07128 32.5052 2.1127 36.656 2.85836C40.3916 3.52117 43.2971 6.46238 44.3763 10.025C44.9989 12.0963 45.082 14.2918 45.082 16.4874C45.082 17.233 45.082 17.9373 45.0404 18.6829L43.0481 18.3101C43.0896 17.6473 43.0896 17.0259 43.0896 16.4874C43.0896 15.6588 43.0481 14.6232 42.9651 13.6704L40.8897 14.0433C40.9727 14.996 41.0142 15.866 41.0142 16.4874C41.0142 17.6473 40.9312 18.8072 40.7652 19.9671L44.8329 20.6299ZM22.585 12.2205H24.6604V14.2918H22.585V12.2205Z" fill="#469CB7"/>
<path d="M55.9152 23.654H53.7568V12.3862H55.9152V16.6945H60.7716V12.3862H62.8884V23.6954H60.7716V18.6415H55.9152V23.654Z" fill="#16193B"/>
<path d="M71.8951 23.2398C70.6914 23.654 69.4462 23.9026 68.1595 23.9026C65.5445 23.9026 64.6729 23.3226 64.6729 21.1271C64.6729 18.8072 66.0011 18.4344 67.9104 18.4344C68.5745 18.4344 69.2802 18.5173 69.9443 18.6415C69.9443 17.1916 69.6122 16.8602 67.8689 16.8602C67.0388 16.8602 66.1671 16.9845 65.3785 17.2331L65.0049 15.576C66.0841 15.2861 67.1633 15.1618 68.284 15.1204C70.7329 15.1204 71.8536 15.866 71.8536 18.3516L71.8951 23.2398ZM69.9443 20.0086C69.4047 19.8843 68.8236 19.8429 68.284 19.8429C67.1633 19.8429 66.7482 19.9671 66.7482 21.0442C66.7482 22.1213 67.0388 22.3284 68.284 22.3284C68.8651 22.3284 69.4047 22.2456 69.9443 22.0384V20.0086Z" fill="#16193B"/>
<path d="M75.8805 20.1741V23.6953H73.8467V15.4102H75.8805V18.4342H79.1181V15.4102H81.152V23.6538H79.1181V20.1327H75.8805V20.1741Z" fill="#16193B"/>
<path d="M82.8125 19.5115C82.8125 16.1561 84.1407 15.1619 86.7557 15.1619C89.3706 15.1619 90.7404 16.1147 90.7404 19.5115C90.7404 22.9084 89.4537 23.9027 86.7557 23.9027C84.1407 23.9027 82.8125 22.867 82.8125 19.5115ZM84.8879 19.553C84.8879 21.8314 85.3444 22.2871 86.7557 22.2871C88.1669 22.2871 88.6235 21.8314 88.6235 19.553C88.6235 17.1917 88.1669 16.8189 86.7557 16.8189C85.3444 16.8189 84.8879 17.1503 84.8879 19.553Z" fill="#16193B"/>
<path d="M98.7095 23.4884C97.8794 23.7369 97.0492 23.9027 96.1776 23.9027C93.6456 23.9027 92.0684 22.9084 92.0684 19.5115C92.0684 16.1147 93.6456 15.1619 96.1776 15.1619C97.0492 15.1619 97.8794 15.2861 98.7095 15.5347L98.2529 17.2331C97.6303 16.9846 97.0077 16.8603 96.3436 16.8603C94.8909 16.8603 94.1852 17.1917 94.1852 19.4701C94.1852 21.6657 94.8909 22.0799 96.3436 22.0799C97.0077 22.0799 97.6303 21.9557 98.2529 21.7071L98.7095 23.4884Z" fill="#16193B"/>
<path d="M106.886 23.447C105.931 23.7369 104.976 23.9027 103.98 23.9027C101.573 23.9027 99.9541 22.9084 99.9541 19.5115C99.9541 16.1975 101.407 15.1619 103.814 15.1619C106.429 15.1619 107.55 16.0732 107.425 20.0501H102.071C102.071 21.8314 102.777 22.1628 104.229 22.1628C105.018 22.1214 105.807 21.9971 106.554 21.8314L106.886 23.447ZM102.112 18.5173H105.599C105.516 17.0674 105.101 16.736 103.939 16.736C102.694 16.7775 102.237 17.1503 102.112 18.5173Z" fill="#16193B"/>
<path d="M116.143 15.4102H118.965V23.6538H116.973V17.6471C116.226 19.3042 115.313 21.5411 114.69 23.1567H113.196C112.615 21.5411 111.701 19.2213 110.996 17.6471V23.6538H108.962V15.4102H111.909C112.656 16.9843 113.362 18.5999 114.067 20.3398C114.648 18.6413 115.354 17.0258 116.143 15.4102Z" fill="#16193B"/>
<path d="M127.889 23.2398C126.686 23.654 125.44 23.9026 124.154 23.9026C121.539 23.9026 120.667 23.3226 120.667 21.1271C120.667 18.8072 121.995 18.4344 123.905 18.4344C124.569 18.4344 125.274 18.5173 125.938 18.6415C125.938 17.1916 125.606 16.8602 123.863 16.8602C123.033 16.8602 122.161 16.9845 121.373 17.2331L120.999 15.576C122.078 15.2861 123.157 15.1618 124.278 15.1204C126.727 15.1204 127.848 15.866 127.848 18.3516V23.2398H127.889ZM125.98 20.0086C125.44 19.8843 124.859 19.8429 124.32 19.8429C123.199 19.8429 122.784 19.9671 122.784 21.0442C122.784 22.1213 123.074 22.3284 124.32 22.3284C124.901 22.3284 125.44 22.2456 125.98 22.0384V20.0086Z" fill="#16193B"/>
<path d="M131.832 20.1741V23.6953H129.798V15.4102H131.832V18.4342H135.069V15.4102H137.103V23.6538H135.069V20.1327H131.832V20.1741Z" fill="#16193B"/>
<path d="M143.164 23.6538H141.13V17.15H138.308V15.4102H146.028V17.15H143.164V23.6538Z" fill="#16193B"/>
<path d="M152.544 18.6413C151.548 20.4226 150.428 22.0797 149.182 23.6953H147.148V15.4102H149.182V20.6712C150.428 19.0142 151.548 17.2329 152.544 15.4102H154.578V23.6538H152.544V18.6413Z" fill="#16193B"/>
<path d="M162.173 23.6538C160.762 20.7126 159.807 20.0498 158.728 19.8427V23.6538H156.694V15.4102H158.728V19.387C159.392 18.6828 160.596 17.1915 161.924 15.4102H164.332C162.754 17.5643 161.634 18.8485 161.177 19.1799C162.007 19.5113 162.754 20.0084 164.498 23.6538H162.173Z" fill="#16193B"/>
<path d="M172.551 23.2398C171.348 23.654 170.102 23.9026 168.816 23.9026C166.201 23.9026 165.329 23.3226 165.329 21.1271C165.329 18.8072 166.657 18.4344 168.567 18.4344C169.231 18.4344 169.936 18.5173 170.601 18.6415C170.601 17.1916 170.268 16.8602 168.525 16.8602C167.695 16.8602 166.823 16.9845 166.035 17.2331L165.661 15.576C166.74 15.2861 167.82 15.1618 168.94 15.1204C171.389 15.1204 172.51 15.866 172.51 18.3516V23.2398H172.551ZM170.601 20.0086C170.061 19.8843 169.48 19.8429 168.94 19.8429C167.82 19.8429 167.404 19.9671 167.404 21.0442C167.404 22.1213 167.695 22.3284 168.94 22.3284C169.521 22.3284 170.061 22.2456 170.601 22.0384V20.0086Z" fill="#16193B"/>
</svg>
