<svg width="24" height="24" fill="none" xmlns="http://www.w3.org/2000/svg"><path fill-rule="evenodd" clip-rule="evenodd" d="M15.384 7.116a1.25 1.25 0 00-1.768 1.768L16.732 12l-3.116 3.116a1.25 1.25 0 001.768 1.768l3.116-3.116 3.116 3.116a1.25 1.25 0 001.768-1.768L20.268 12l3.116-3.116a1.25 1.25 0 00-1.768-1.768L18.5 10.232l-3.116-3.116z" fill="#469CB7"/><path d="M2.253 8.44v7.12a1 1 0 001 1h2.509a1 1 0 01.7.285l5.026 4.924a.4.4 0 00.68-.286V2.516a.4.4 0 00-.68-.285L6.462 7.155a1 1 0 01-.7.285h-2.51a1 1 0 00-1 1z" fill="#469CB7"/></svg>