<svg xmlns="http://www.w3.org/2000/svg" width="109" height="54" viewBox="0 0 109 54" fill="none"><path d="M51.1319 11.3684C50.1825 11.3517 49.2448 11.5785 48.4095 12.027V32.5456H48.0954V20.4493C47.9558 20.4493 47.8162 20.484 47.6766 20.484V20.3453C46.4201 20.4493 45.4428 20.6919 45.1985 21.3851C45.0579 21.5492 44.9834 21.759 44.9891 21.9743V33.2388H44.3609V33.5854H43.7326V35.561H43.4883V36.1502H43.3836V38.0218H42.7903V33.6893L42.7554 33.5854V33.2388H42.6507L42.6158 32.6842L42.5808 32.2683C42.6158 32.2336 42.6507 32.2336 42.6507 32.1643C42.6507 32.1367 42.6396 32.1103 42.62 32.0908C42.6003 32.0713 42.5737 32.0603 42.5459 32.0603C42.5182 32.0603 42.4915 32.0713 42.4719 32.0908C42.4523 32.1103 42.4412 32.1367 42.4412 32.1643C42.4412 32.199 42.4761 32.2336 42.511 32.2683L42.4761 32.6842L42.4412 33.2388H42.3365V33.3774H41.9526V33.2041L41.5687 32.9961H41.4291L41.0102 33.2041V33.3774H40.6263V33.2388H40.5216L40.4867 32.6842L40.4518 32.2683C40.4867 32.2336 40.5216 32.2336 40.5216 32.1643C40.5216 32.1367 40.5106 32.1103 40.4909 32.0908C40.4713 32.0713 40.4447 32.0603 40.4169 32.0603C40.3891 32.0603 40.3625 32.0713 40.3429 32.0908C40.3232 32.1103 40.3122 32.1367 40.3122 32.1643C40.3122 32.199 40.3471 32.2336 40.382 32.2683L40.3471 32.6842L40.3122 33.2388H40.3471V33.5854L40.3122 33.6893V35.457H39.7538V30.9512H39.7887V30.3273H39.6491L39.5792 29.5995L39.5443 29.0796C39.5792 29.0449 39.6491 29.0103 39.6491 28.9409C39.6491 28.9042 39.6343 28.8689 39.6082 28.8429C39.582 28.8169 39.5465 28.8023 39.5094 28.8023C39.4724 28.8023 39.4369 28.8169 39.4107 28.8429C39.3845 28.8689 39.3698 28.9042 39.3698 28.9409C39.3698 29.0103 39.4047 29.0449 39.4745 29.0796L39.4396 29.5995L39.3698 30.3273H39.2302V30.7779H38.6718V30.362H38.3228V26.9307H38.2879L38.253 26.6881V26.5148L38.2879 26.4801C38.2879 26.4709 38.2842 26.4621 38.2776 26.4556C38.2711 26.4491 38.2622 26.4454 38.253 26.4454L38.2181 26.4801C38.2181 26.5148 38.2181 26.5148 38.253 26.5148V26.6881L38.2181 26.9307H38.1832V27.0693H38.0784V26.9307H37.9039V26.8267H37.6596C37.6614 26.7786 37.6733 26.7314 37.6945 26.6881C37.6987 26.5932 37.6785 26.4989 37.6357 26.414C37.593 26.3291 37.5291 26.2564 37.4502 26.2028V26.0295H37.3455L37.2408 23.846L37.171 22.7022L37.3106 22.7715L37.2059 22.6675C37.2738 22.651 37.333 22.6098 37.3717 22.552C37.4105 22.4943 37.4261 22.4242 37.4153 22.3556C37.4201 22.2969 37.4057 22.2382 37.3743 22.1882C37.3429 22.1383 37.296 22.0997 37.2408 22.0783C37.2889 22.1058 37.3278 22.1468 37.3526 22.1961C37.3775 22.2454 37.3871 22.3009 37.3804 22.3556C37.3743 22.4306 37.3437 22.5017 37.2934 22.558C37.243 22.6142 37.1755 22.6527 37.1012 22.6675C37.0234 22.6605 36.9513 22.6243 36.8994 22.5664C36.8476 22.5085 36.8199 22.4331 36.822 22.3556C36.822 22.3018 36.8346 22.2487 36.8588 22.2006C36.883 22.1525 36.9182 22.1106 36.9616 22.0783C36.9092 22.1036 36.8651 22.1431 36.8343 22.1921C36.8034 22.2411 36.7871 22.2978 36.7871 22.3556C36.7882 22.422 36.8085 22.4868 36.8456 22.5421C36.8828 22.5974 36.9351 22.6409 36.9965 22.6675L36.8918 22.7715L37.0314 22.7022L36.9616 23.846L36.8569 26.0295H36.7522V26.2028C36.6763 26.2593 36.6147 26.3326 36.5723 26.4168C36.5299 26.501 36.5078 26.5939 36.5078 26.6881C36.5078 26.7574 36.5078 26.8267 36.5427 26.8267H36.2984V26.9307H36.1239V27.0693H36.0192V26.9307H35.9843L35.9494 26.6881V26.5148L35.9843 26.4801C35.9843 26.4709 35.9806 26.4621 35.9741 26.4556C35.9675 26.4491 35.9587 26.4454 35.9494 26.4454C35.9229 26.4491 35.8984 26.4613 35.8796 26.4801C35.8796 26.5148 35.8796 26.5148 35.9145 26.5148V26.6881L35.8796 26.9307H35.8447V30.3967H35.4608V30.8126H34.9023V30.362H34.7627L34.6929 29.6341L34.658 29.1142C34.6929 29.0796 34.7627 29.0449 34.7627 28.9756C34.7627 28.9388 34.748 28.9036 34.7218 28.8776C34.6957 28.8516 34.6601 28.837 34.6231 28.837C34.5861 28.837 34.5506 28.8516 34.5244 28.8776C34.4982 28.9036 34.4835 28.9388 34.4835 28.9756C34.4835 29.0449 34.5184 29.0796 34.5882 29.1142L34.5533 29.6341L34.4835 30.362H34.4137V30.9859H34.4486V35.4917H33.2619V33.724L33.227 33.62V33.2734H33.1223L33.0874 32.7189L33.0525 32.3029C33.0874 32.2683 33.1223 32.2683 33.1223 32.199C33.1223 32.1714 33.1113 32.1449 33.0917 32.1254C33.072 32.1059 33.0454 32.095 33.0176 32.095C32.9898 32.095 32.9632 32.1059 32.9436 32.1254C32.9239 32.1449 32.9129 32.1714 32.9129 32.199C32.9129 32.2336 32.9478 32.2683 32.9827 32.3029L32.9478 32.7189L32.9129 33.2734H32.8082V33.4121H32.4243V33.2041L32.0403 32.9961H31.9705L31.5866 33.2041V33.3774H31.2027V33.2388H31.098L31.0631 32.6842L31.0282 32.2683C31.0631 32.2336 31.098 32.2336 31.098 32.1643C31.098 32.1367 31.0869 32.1103 31.0673 32.0908C31.0477 32.0713 31.021 32.0603 30.9933 32.0603C30.9655 32.0603 30.9389 32.0713 30.9192 32.0908C30.8996 32.1103 30.8886 32.1367 30.8886 32.1643C30.8886 32.199 30.9235 32.2336 30.9584 32.2683L30.9235 32.6842L30.8886 33.2388H30.7839V33.5854L30.749 33.6893V39.6855H30.5395L30.365 40.0667H30.4348V40.7946H30.0509V40.9332L29.6321 41.4185H29.3878V42.2503H29.2482V42.5276H29.0736V43.6367H28.4803V43.8793H28.585V45.0231C17.6606 47.5186 7.99264 50.534 0 54C25.6532 45.8549 60.6603 40.8293 99.2622 40.8293C102.578 40.8293 105.58 40.8639 108.86 40.9332L108.825 30.7779V30.57L108.546 26.5841V25.6483H109V25.2323H108.756V24.6778H108.895V24.2272H108.476L108.372 21.1772V20.8306H108.407V20.4146H108.302V20.068H108.407V19.6521H108.302L108.197 16.9487H108.476V16.6021H108.616V15.7356H108.511V15.5623H108.407V14.7997H108.511V14.3145H108.232V13.5173H108.337V13.1361H108.232V12.2696H108.337V11.8883H108.232V10.9525H108.546V10.294H108.686V9.56611H108.616V8.42234H108.162V7.34788H108.267V7.20924H108.058V5.44159H108.162V5.30295H107.953V3.60462H108.093V3.5353H107.918V2.35687H107.988V2.21823H107.883V1.10911H107.953V0.970475H107.848V0.13864H107.918V0H107.778V0.13864H107.848V0.935815H107.709V1.10911H107.778V2.21823H107.674V2.35687H107.744V3.46598H107.569V3.60462H107.709V5.26829H107.499V5.40693H107.604V7.17458H107.36V7.31322H107.464V8.38768H107.011V9.53145H106.941V10.2593H107.08V10.9178H107.394V11.8537H107.29V12.2349H107.394V13.1014H107.29V13.4827H107.394V14.2798H107.15V14.7651H107.255V15.5276H107.15V15.7009H107.011V16.5674H107.15V16.914H107.429L107.325 19.6175H107.22V20.0334H107.325V20.38H107.22V20.7959H107.255V21.1425L107.15 24.1926H106.731V24.6431H106.871V25.2323H106.662V25.6483H107.115V26.5841L106.976 30.57V30.7779L106.906 33.0308C106.862 33.0097 106.815 32.9979 106.766 32.9961L106.836 33.5854H106.627L106.696 32.9961C106.623 33.0413 106.538 33.0652 106.452 33.0652C106.366 33.0652 106.281 33.0413 106.208 32.9961L106.278 33.5854H105.964L106.033 32.9961C105.96 33.0413 105.875 33.0652 105.789 33.0652C105.703 33.0652 105.618 33.0413 105.545 32.9961L105.614 33.5854H105.405L105.475 32.9961C105.401 33.0413 105.317 33.0652 105.231 33.0652C105.144 33.0652 105.06 33.0413 104.986 32.9961L105.056 33.5854H104.847L104.916 32.9961C104.843 33.0413 104.758 33.0652 104.672 33.0652C104.586 33.0652 104.501 33.0413 104.428 32.9961L104.498 33.5854H104.253V32.3029H104.288V31.991H103.869L103.555 30.6046L103.241 31.991H102.962V32.3723H103.032V33.6893H102.892L102.962 33.1001C102.888 33.1452 102.804 33.1691 102.718 33.1691C102.631 33.1691 102.547 33.1452 102.473 33.1001L102.543 33.6893H102.334L102.403 33.1001C102.33 33.1452 102.245 33.1691 102.159 33.1691C102.073 33.1691 101.988 33.1452 101.915 33.1001L101.985 33.6893H101.74L101.81 33.1001C101.737 33.1452 101.652 33.1691 101.566 33.1691C101.479 33.1691 101.395 33.1452 101.321 33.1001L101.391 33.6893H101.147L101.217 33.1001C101.143 33.1452 101.059 33.1691 100.972 33.1691C100.886 33.1691 100.802 33.1452 100.728 33.1001L100.798 33.6893H100.589L100.658 33.1001C100.585 33.1452 100.5 33.1691 100.414 33.1691C100.328 33.1691 100.243 33.1452 100.17 33.1001L100.24 33.6893H100.03L100.1 33.1001C100.027 33.1452 99.9419 33.1691 99.8556 33.1691C99.7693 33.1691 99.6847 33.1452 99.6113 33.1001L99.6811 33.6893H99.4717L99.5415 33.1001C99.5066 33.1001 99.4368 33.1348 99.4019 33.1348V26.3415L99.332 25.371V25.2323H99.4717V24.9551H99.5764V24.2272H99.4717L99.332 23.7766L99.1575 22.2863L98.983 23.7766L98.8434 24.2272H98.7387V24.3659L98.4246 24.2272H97.936V23.0141H97.7265V21.0385H97.6567L97.5171 20.4146H97.4124V19.4442H97.4822V18.9936H97.5869V18.3697H97.4822V16.9487H97.552L97.4124 16.4288L97.1681 15.7356H96.5399L95.5975 9.63543L96.0512 10.0167L95.8418 9.46213L96.3305 9.11553L95.7022 9.15019L95.5626 8.56098L95.423 9.15019L94.7947 9.11553L95.2834 9.46213L95.074 10.0167L95.5277 9.63543L94.5853 15.7356H93.992L93.7477 16.4288L93.6081 16.9487H93.6779V18.3697H93.5732V18.9936H93.6779V19.4442H93.7477V20.5186H93.643L93.5034 21.1425H93.3987V23.1181H93.259V24.3312H93.0496L92.7355 24.4698V24.3312H92.6308L92.4912 23.8806L92.3167 22.3902L92.1422 23.8806L92.0026 24.3312H91.8979V25.059H92.0026V25.3363H92.1422V25.475L92.0724 26.4454V33.7587H91.9328L92.0026 33.1694C91.9292 33.2146 91.8446 33.2385 91.7582 33.2385C91.6719 33.2385 91.5873 33.2146 91.5139 33.1694L91.5837 33.7587H91.3743L91.4441 33.1694C91.3707 33.2146 91.2861 33.2385 91.1998 33.2385C91.1135 33.2385 91.0289 33.2146 90.9555 33.1694L91.0253 33.7587H90.8159L90.8857 33.1694C90.8123 33.2146 90.7277 33.2385 90.6414 33.2385C90.5551 33.2385 90.4704 33.2146 90.397 33.1694L90.4669 33.7587H90.2574L90.3272 33.1694C90.2539 33.2146 90.1692 33.2385 90.0829 33.2385C89.9966 33.2385 89.912 33.2146 89.8386 33.1694L89.9084 33.7587H89.699L89.7688 33.1694C89.6954 33.2146 89.6108 33.2385 89.5245 33.2385C89.4382 33.2385 89.3536 33.2146 89.2802 33.1694L89.35 33.7587H89.001L89.0708 33.1694C88.9974 33.2146 88.9128 33.2385 88.8264 33.2385C88.7401 33.2385 88.6555 33.2146 88.5821 33.1694L88.6519 33.7587H88.4076L88.4774 33.1694C88.404 33.2146 88.3194 33.2385 88.2331 33.2385C88.1468 33.2385 88.0622 33.2146 87.9888 33.1694L88.0586 33.7587H87.919V32.4416H87.9539V32.0603H87.4653L87.1511 30.6739L86.837 32.0603H86.5229V32.4416H86.5927V33.7587H86.4531L86.5229 33.1694C86.4495 33.2146 86.3649 33.2385 86.2786 33.2385C86.1923 33.2385 86.1076 33.2146 86.0343 33.1694L86.1041 33.7587H85.8947L85.9645 33.1694C85.8911 33.2146 85.8065 33.2385 85.7201 33.2385C85.6338 33.2385 85.5492 33.2146 85.4758 33.1694L85.5456 33.7587H85.3362L85.406 33.1694C85.3326 33.2146 85.248 33.2385 85.1617 33.2385C85.0754 33.2385 84.9908 33.2146 84.9174 33.1694L84.9872 33.7587H84.6731L84.7429 33.1694C84.6695 33.2146 84.5849 33.2385 84.4986 33.2385C84.4122 33.2385 84.3276 33.2146 84.2542 33.1694L84.324 33.7587H84.1146L84.1844 33.1694C84.111 33.2146 84.0264 33.2385 83.9401 33.2385C83.8538 33.2385 83.7692 33.2146 83.6958 33.1694L83.7656 33.7587H83.5562L83.626 33.1694C83.5526 33.2146 83.468 33.2385 83.3817 33.2385C83.2954 33.2385 83.2108 33.2146 83.1374 33.1694L83.2072 33.7587H82.9978L83.0676 33.1694C82.9942 33.2146 82.9096 33.2385 82.8232 33.2385C82.7369 33.2385 82.6523 33.2146 82.5789 33.1694L82.6487 33.7587H82.4393L82.5091 33.1694C82.4357 33.2146 82.3511 33.2385 82.2648 33.2385C82.1785 33.2385 82.0939 33.2146 82.0205 33.1694L82.0903 33.7587H81.8809L81.9507 33.1694C81.8773 33.2146 81.7927 33.2385 81.7064 33.2385C81.6201 33.2385 81.5355 33.2146 81.4621 33.1694L81.5319 33.7587H81.3224L81.3923 33.1694C81.3189 33.2146 81.2343 33.2385 81.1479 33.2385C81.0616 33.2385 80.977 33.2146 80.9036 33.1694L80.9734 33.7587H80.6593V33.1348H80.4848V32.6495H80.5197V32.3029H80.415V32.1643L80.1009 31.0205H80.1707V30.8819H80.1009V29.9807H80.1707V29.8421H79.8914L79.5424 28.8716L79.1934 29.8421H78.9142V29.9807H78.984V30.8819H78.9142V31.0205H78.984L78.6699 32.1643V32.3029H78.5652V32.5456H78.6001V33.0308H78.4256V35.665H77.9369V35.8036H77.6926V35.353H77.3436V36.0462H76.8898V37.3286H76.2965V35.1797H75.1447V35.6303H74.8306V35.3184H73.5043V33.2388H72.9459L72.2129 18.3697H72.0035V18.3004H71.7592V17.9538H71.0263C70.8866 17.0526 70.747 16.4981 70.5725 16.4981C70.5027 16.4981 70.4678 16.5674 70.4329 16.6367H67.0474C67.0125 16.5327 66.9427 16.4981 66.9078 16.4981C66.489 16.4981 66.1748 19.6868 66.1748 23.6033C66.1748 24.7471 66.2097 25.8216 66.2446 26.792L65.5117 26.7574V24.1579H65.6513V19.3055H65.5117V15.8049H65.6513V11.3684H64.7787V10.8832H63.243V11.3684H62.9638V26.5148L62.4403 26.792V25.6136H62.5799V20.3453H62.2658V15.8742H62.3705V10.2593H61.5328V9.70475H59.7877V10.2593H59.4038V15.8395H59.1595V20.8652H59.334V25.371L58.9849 25.5789V21.1425C58.0348 21.1615 57.1261 21.5324 56.4371 22.1823C56.0881 25.2323 55.9834 31.9217 55.9834 31.9217H55.7041V26.7227C55.6692 26.6187 55.5645 26.5494 55.4249 26.4108C55.3551 26.0642 55.041 25.7522 54.4476 25.475V12.7895H54.1684V12.3736H54.0288V11.9923C53.8838 11.9196 53.7318 11.8615 53.5751 11.819C52.7892 11.5438 51.9649 11.3918 51.1319 11.3684Z" fill="#EC0E43"/></svg>