<svg width="226" height="16" fill="none" xmlns="http://www.w3.org/2000/svg"><rect y="4" width="2" height="8" rx="1" fill="#469CB7" fill-opacity=".5"/><rect x="4" width="2" height="16" rx="1" fill="#469CB7" fill-opacity=".5"/><rect x="8" y="2" width="2" height="12" rx="1" fill="#469CB7" fill-opacity=".5"/><rect x="12" y="2" width="2" height="12" rx="1" fill="#469CB7" fill-opacity=".5"/><rect x="16" width="2" height="16" rx="1" fill="#469CB7" fill-opacity=".5"/><rect x="20" y="7" width="2" height="2" rx="1" fill="#469CB7" fill-opacity=".5"/><rect x="24" y="7" width="2" height="2" rx="1" fill="#469CB7" fill-opacity=".5"/><rect x="28" width="2" height="16" rx="1" fill="#469CB7" fill-opacity=".5"/><rect x="32" width="2" height="16" rx="1" fill="#469CB7" fill-opacity=".5"/><rect x="36" y="7" width="2" height="2" rx="1" fill="#469CB7" fill-opacity=".5"/><rect x="40" y="7" width="2" height="2" rx="1" fill="#469CB7" fill-opacity=".5"/><rect x="44" width="2" height="16" rx="1" fill="#469CB7" fill-opacity=".5"/><rect x="48" y="7" width="2" height="2" rx="1" fill="#469CB7" fill-opacity=".5"/><rect x="52" y="7" width="2" height="2" rx="1" fill="#469CB7" fill-opacity=".5"/><rect x="56" y="4" width="2" height="8" rx="1" fill="#469CB7" fill-opacity=".5"/><rect x="60" width="2" height="16" rx="1" fill="#469CB7" fill-opacity=".5"/><rect x="64" y="2" width="2" height="12" rx="1" fill="#469CB7" fill-opacity=".5"/><rect x="68" y="2" width="2" height="12" rx="1" fill="#469CB7" fill-opacity=".5"/><rect x="72" y="4" width="2" height="8" rx="1" fill="#469CB7" fill-opacity=".5"/><rect x="76" width="2" height="16" rx="1" fill="#469CB7" fill-opacity=".5"/><rect x="80" y="2" width="2" height="12" rx="1" fill="#469CB7" fill-opacity=".5"/><rect x="84" y="2" width="2" height="12" rx="1" fill="#469CB7" fill-opacity=".5"/><rect x="88" y="2" width="2" height="12" rx="1" fill="#469CB7" fill-opacity=".5"/><rect x="92" y="4" width="2" height="8" rx="1" fill="#469CB7" fill-opacity=".5"/><rect x="96" width="2" height="16" rx="1" fill="#469CB7" fill-opacity=".5"/><rect x="100" y="2" width="2" height="12" rx="1" fill="#469CB7" fill-opacity=".5"/><rect x="104" y="2" width="2" height="12" rx="1" fill="#469CB7" fill-opacity=".5"/><rect x="108" y="4" width="2" height="8" rx="1" fill="#469CB7" fill-opacity=".5"/><rect x="112" width="2" height="16" rx="1" fill="#469CB7" fill-opacity=".5"/><rect x="116" width="2" height="16" rx="1" fill="#469CB7" fill-opacity=".5"/><rect x="120" y="2" width="2" height="12" rx="1" fill="#469CB7" fill-opacity=".5"/><rect x="124" y="2" width="2" height="12" rx="1" fill="#469CB7" fill-opacity=".5"/><rect x="128" y="4" width="2" height="8" rx="1" fill="#469CB7" fill-opacity=".5"/><rect x="132" width="2" height="16" rx="1" fill="#469CB7" fill-opacity=".5"/><rect x="136" y="2" width="2" height="12" rx="1" fill="#469CB7" fill-opacity=".5"/><rect x="140" y="2" width="2" height="12" rx="1" fill="#469CB7" fill-opacity=".5"/><rect x="144" y="2" width="2" height="12" rx="1" fill="#469CB7" fill-opacity=".5"/><rect x="148" y="4" width="2" height="8" rx="1" fill="#469CB7" fill-opacity=".5"/><rect x="152" width="2" height="16" rx="1" fill="#469CB7" fill-opacity=".5"/><rect x="156" y="2" width="2" height="12" rx="1" fill="#469CB7" fill-opacity=".5"/><rect x="160" y="2" width="2" height="12" rx="1" fill="#469CB7" fill-opacity=".5"/><rect x="164" y="4" width="2" height="8" rx="1" fill="#469CB7" fill-opacity=".5"/><rect x="168" width="2" height="16" rx="1" fill="#469CB7" fill-opacity=".5"/><rect x="172" width="2" height="16" rx="1" fill="#469CB7" fill-opacity=".5"/><rect x="176" y="2" width="2" height="12" rx="1" fill="#469CB7" fill-opacity=".5"/><rect x="180" y="2" width="2" height="12" rx="1" fill="#469CB7" fill-opacity=".5"/><rect x="184" y="4" width="2" height="8" rx="1" fill="#469CB7" fill-opacity=".5"/><rect x="188" width="2" height="16" rx="1" fill="#469CB7" fill-opacity=".5"/><rect x="192" y="2" width="2" height="12" rx="1" fill="#469CB7" fill-opacity=".5"/><rect x="196" y="2" width="2" height="12" rx="1" fill="#469CB7" fill-opacity=".5"/><rect x="200" y="2" width="2" height="12" rx="1" fill="#469CB7" fill-opacity=".5"/><rect x="204" y="4" width="2" height="8" rx="1" fill="#469CB7" fill-opacity=".5"/><rect x="208" width="2" height="16" rx="1" fill="#469CB7" fill-opacity=".5"/><rect x="212" y="2" width="2" height="12" rx="1" fill="#469CB7" fill-opacity=".5"/><rect x="216" y="2" width="2" height="12" rx="1" fill="#469CB7" fill-opacity=".5"/><rect x="220" y="4" width="2" height="8" rx="1" fill="#469CB7" fill-opacity=".5"/><rect x="224" width="2" height="16" rx="1" fill="#469CB7" fill-opacity=".5"/></svg>