<svg width="598" height="24" fill="none" xmlns="http://www.w3.org/2000/svg"><rect y="2" width="4" height="22" rx="1" fill="#16193B" fill-opacity=".15"/><rect x="6" y="20" width="4" height="4" rx="1" fill="#16193B" fill-opacity=".15"/><rect x="12" y="20" width="4" height="4" rx="1" fill="#16193B" fill-opacity=".15"/><rect x="18" y="2" width="4" height="22" rx="1" fill="#16193B" fill-opacity=".15"/><rect x="24" y="20" width="4" height="4" rx="1" fill="#16193B" fill-opacity=".15"/><rect x="30" y="20" width="4" height="4" rx="1" fill="#16193B" fill-opacity=".15"/><rect x="36" y="14" width="4" height="10" rx="1" fill="#16193B" fill-opacity=".15"/><rect x="42" y="2" width="4" height="22" rx="1" fill="#16193B" fill-opacity=".15"/><rect x="48" y="8" width="4" height="16" rx="1" fill="#16193B" fill-opacity=".15"/><rect x="54" y="8" width="4" height="16" rx="1" fill="#16193B" fill-opacity=".15"/><rect x="60" y="2" width="4" height="22" rx="1" fill="#16193B" fill-opacity=".15"/><rect x="66" y="20" width="4" height="4" rx="1" fill="#16193B" fill-opacity=".15"/><rect x="72" y="20" width="4" height="4" rx="1" fill="#16193B" fill-opacity=".15"/><rect x="78" y="2" width="4" height="22" rx="1" fill="#16193B" fill-opacity=".15"/><rect x="84" y="2" width="4" height="22" rx="1" fill="#16193B" fill-opacity=".15"/><rect x="90" y="20" width="4" height="4" rx="1" fill="#16193B" fill-opacity=".15"/><rect x="96" y="20" width="4" height="4" rx="1" fill="#16193B" fill-opacity=".15"/><rect x="102" y="2" width="4" height="22" rx="1" fill="#16193B" fill-opacity=".15"/><rect x="108" y="20" width="4" height="4" rx="1" fill="#16193B" fill-opacity=".15"/><rect x="114" y="20" width="4" height="4" rx="1" fill="#16193B" fill-opacity=".15"/><rect x="120" y="14" width="4" height="10" rx="1" fill="#16193B" fill-opacity=".15"/><rect x="126" y="2" width="4" height="22" rx="1" fill="#16193B" fill-opacity=".15"/><rect x="132" y="8" width="4" height="16" rx="1" fill="#16193B" fill-opacity=".15"/><rect x="138" y="8" width="4" height="16" rx="1" fill="#16193B" fill-opacity=".15"/><rect x="144" y="14" width="4" height="10" rx="1" fill="#16193B" fill-opacity=".15"/><rect x="150" width="4" height="24" rx="1" fill="#16193B" fill-opacity=".15"/><rect x="156" y="8" width="4" height="16" rx="1" fill="#16193B" fill-opacity=".15"/><rect x="162" y="8" width="4" height="16" rx="1" fill="#16193B" fill-opacity=".15"/><rect x="168" y="8" width="4" height="16" rx="1" fill="#16193B" fill-opacity=".15"/><rect x="174" y="14" width="4" height="10" rx="1" fill="#16193B" fill-opacity=".15"/><rect x="180" width="4" height="24" rx="1" fill="#16193B" fill-opacity=".15"/><rect x="186" y="8" width="4" height="16" rx="1" fill="#16193B" fill-opacity=".15"/><rect x="192" y="8" width="4" height="16" rx="1" fill="#16193B" fill-opacity=".15"/><rect x="198" y="14" width="4" height="10" rx="1" fill="#16193B" fill-opacity=".15"/><rect x="204" width="4" height="24" rx="1" fill="#16193B" fill-opacity=".15"/><rect x="210" y="20" width="4" height="4" rx="1" fill="#16193B" fill-opacity=".15"/><rect x="216" y="20" width="4" height="4" rx="1" fill="#16193B" fill-opacity=".15"/><rect x="222" y="20" width="4" height="4" rx="1" fill="#16193B" fill-opacity=".15"/><rect x="228" y="20" width="4" height="4" rx="1" fill="#16193B" fill-opacity=".15"/><rect x="234" y="20" width="4" height="4" rx="1" fill="#16193B" fill-opacity=".15"/><rect x="240" y="20" width="4" height="4" rx="1" fill="#16193B" fill-opacity=".15"/><rect x="246" y="20" width="4" height="4" rx="1" fill="#16193B" fill-opacity=".15"/><rect x="252" y="20" width="4" height="4" rx="1" fill="#16193B" fill-opacity=".15"/><rect x="258" y="8" width="4" height="16" rx="1" fill="#16193B" fill-opacity=".15"/><rect x="264" y="8" width="4" height="16" rx="1" fill="#16193B" fill-opacity=".15"/><rect x="270" y="14" width="4" height="10" rx="1" fill="#16193B" fill-opacity=".15"/><rect x="276" width="4" height="24" rx="1" fill="#16193B" fill-opacity=".15"/><rect x="282" y="8" width="4" height="16" rx="1" fill="#16193B" fill-opacity=".15"/><rect x="288" y="8" width="4" height="16" rx="1" fill="#16193B" fill-opacity=".15"/><rect x="294" y="14" width="4" height="10" rx="1" fill="#16193B" fill-opacity=".15"/><rect x="300" width="4" height="24" rx="1" fill="#16193B" fill-opacity=".15"/><rect x="306" y="8" width="4" height="16" rx="1" fill="#16193B" fill-opacity=".15"/><rect x="312" y="8" width="4" height="16" rx="1" fill="#16193B" fill-opacity=".15"/><rect x="318" y="14" width="4" height="10" rx="1" fill="#16193B" fill-opacity=".15"/><rect x="324" width="4" height="24" rx="1" fill="#16193B" fill-opacity=".15"/><rect x="330" y="8" width="4" height="16" rx="1" fill="#16193B" fill-opacity=".15"/><rect x="336" width="4" height="24" rx="1" fill="#16193B" fill-opacity=".15"/><rect x="342" y="20" width="4" height="4" rx="1" fill="#16193B" fill-opacity=".15"/><rect x="348" y="20" width="4" height="4" rx="1" fill="#16193B" fill-opacity=".15"/><rect x="354" width="4" height="24" rx="1" fill="#16193B" fill-opacity=".15"/><rect x="360" y="20" width="4" height="4" rx="1" fill="#16193B" fill-opacity=".15"/><rect x="366" y="20" width="4" height="4" rx="1" fill="#16193B" fill-opacity=".15"/><rect x="372" y="14" width="4" height="10" rx="1" fill="#16193B" fill-opacity=".15"/><rect x="378" width="4" height="24" rx="1" fill="#16193B" fill-opacity=".15"/><rect x="384" y="8" width="4" height="16" rx="1" fill="#16193B" fill-opacity=".15"/><rect x="390" y="8" width="4" height="16" rx="1" fill="#16193B" fill-opacity=".15"/><rect x="396" width="4" height="24" rx="1" fill="#16193B" fill-opacity=".15"/><rect x="402" y="20" width="4" height="4" rx="1" fill="#16193B" fill-opacity=".15"/><rect x="408" y="20" width="4" height="4" rx="1" fill="#16193B" fill-opacity=".15"/><rect x="414" width="4" height="24" rx="1" fill="#16193B" fill-opacity=".15"/><rect x="420" width="4" height="24" rx="1" fill="#16193B" fill-opacity=".15"/><rect x="426" y="20" width="4" height="4" rx="1" fill="#16193B" fill-opacity=".15"/><rect x="432" y="20" width="4" height="4" rx="1" fill="#16193B" fill-opacity=".15"/><rect x="438" width="4" height="24" rx="1" fill="#16193B" fill-opacity=".15"/><rect x="444" y="20" width="4" height="4" rx="1" fill="#16193B" fill-opacity=".15"/><rect x="450" y="20" width="4" height="4" rx="1" fill="#16193B" fill-opacity=".15"/><rect x="456" y="14" width="4" height="10" rx="1" fill="#16193B" fill-opacity=".15"/><rect x="462" width="4" height="24" rx="1" fill="#16193B" fill-opacity=".15"/><rect x="468" y="8" width="4" height="16" rx="1" fill="#16193B" fill-opacity=".15"/><rect x="474" y="20" width="4" height="4" rx="1" fill="#16193B" fill-opacity=".15"/><rect x="480" width="4" height="24" rx="1" fill="#16193B" fill-opacity=".15"/><rect x="486" y="20" width="4" height="4" rx="1" fill="#16193B" fill-opacity=".15"/><rect x="492" y="20" width="4" height="4" rx="1" fill="#16193B" fill-opacity=".15"/><rect x="498" y="14" width="4" height="10" rx="1" fill="#16193B" fill-opacity=".15"/><rect x="504" width="4" height="24" rx="1" fill="#16193B" fill-opacity=".15"/><rect x="510" y="8" width="4" height="16" rx="1" fill="#16193B" fill-opacity=".15"/><rect x="516" y="8" width="4" height="16" rx="1" fill="#16193B" fill-opacity=".15"/><rect x="522" width="4" height="24" rx="1" fill="#16193B" fill-opacity=".15"/><rect x="528" y="20" width="4" height="4" rx="1" fill="#16193B" fill-opacity=".15"/><rect x="534" y="20" width="4" height="4" rx="1" fill="#16193B" fill-opacity=".15"/><rect x="540" width="4" height="24" rx="1" fill="#16193B" fill-opacity=".15"/><rect x="546" width="4" height="24" rx="1" fill="#16193B" fill-opacity=".15"/><rect x="552" y="20" width="4" height="4" rx="1" fill="#16193B" fill-opacity=".15"/><rect x="558" y="20" width="4" height="4" rx="1" fill="#16193B" fill-opacity=".15"/><rect x="564" width="4" height="24" rx="1" fill="#16193B" fill-opacity=".15"/><rect x="570" y="20" width="4" height="4" rx="1" fill="#16193B" fill-opacity=".15"/><rect x="576" y="20" width="4" height="4" rx="1" fill="#16193B" fill-opacity=".15"/><rect x="582" y="14" width="4" height="10" rx="1" fill="#16193B" fill-opacity=".15"/><rect x="588" width="4" height="24" rx="1" fill="#16193B" fill-opacity=".15"/><rect x="594" y="8" width="4" height="16" rx="1" fill="#16193B" fill-opacity=".15"/></svg>