<svg width="36" height="50" fill="none" xmlns="http://www.w3.org/2000/svg"><path fill-rule="evenodd" clip-rule="evenodd" d="M26.83 22.94c0 4.962-3.96 8.997-8.83 8.997s-8.83-4.035-8.83-8.996V9.446a9.1 9.1 0 012.445-6.207A8.776 8.776 0 0117.398.47c.124-.009.248-.028.371-.046.092-.014.184-.02.277-.021 4.843 0 8.784 4.057 8.784 9.043v13.495zm-9.038 26.656a2 2 0 01-2-2V42.38c0-1.008-.754-1.847-1.737-2.072C6.845 38.654 1.3 32.585.453 25.104c-.124-1.097.783-1.996 1.888-1.996h.414c1.105 0 1.984.9 2.15 1.992.964 6.362 6.468 11.252 13.095 11.252 6.627 0 12.131-4.89 13.095-11.252.165-1.092 1.045-1.992 2.15-1.992h.414c1.105 0 2.012.899 1.888 1.996-.847 7.483-6.393 13.55-13.603 15.203-.982.225-1.737 1.064-1.737 2.072v5.217a2 2 0 01-2 2h-.415z" fill="#fff"/></svg>