<svg width="36" height="34" fill="none" xmlns="http://www.w3.org/2000/svg"><path d="M27 11.6h-5.4V.8h-7.2v10.8H9l9 9 9-9zm7.808 11.757c-.378-.403-2.9-3.101-3.62-3.805a2.705 2.705 0 00-1.875-.752H26.15l5.515 5.389h-6.38a.493.493 0 00-.431.24l-1.469 3.37H12.614l-1.469-3.37a.497.497 0 00-.432-.24h-6.38l5.514-5.39h-3.16c-.715 0-1.397.287-1.876.753-.72.706-3.242 3.404-3.62 3.805-.88.938-1.364 1.685-1.134 2.609l1.01 5.533c.23.925 1.244 1.685 2.254 1.685h29.361c1.01 0 2.023-.76 2.254-1.685l1.01-5.533c.226-.924-.256-1.67-1.138-2.609z" fill="#16193B"/></svg>