<svg width="24" height="24" fill="none" xmlns="http://www.w3.org/2000/svg"><path d="M18.927 4.085l-.02-.016.002-.002-.462-.462-.005.006a.647.647 0 00-.853.038l-.821.82.005.005a.646.646 0 00.003.803l-.006.005.052.052.41.41.007-.007.017.02c3.445 3.445 3.456 9.045.033 12.505l-.005-.005-.41.41-.051.051.005.006a.647.647 0 00.038.852v.001l.82.821.006-.005a.646.646 0 00.802-.003l.006.005.052-.052.41-.41h-.002c4.345-4.382 4.334-11.48-.033-15.848z" fill="#469CB7"/><path d="M16.65 7.247l-.02-.016.002-.002-.462-.461-.005.005a.648.648 0 00-.853.039l-.001-.001-.008.008h-.001v.001l-.756.756h-.001l-.055.055.006.005a.645.645 0 00.002.803l-.005.005.462.462.007-.007.016.02a4.398 4.398 0 01.033 6.179l-.004-.004-.41.41-.051.052.005.005a.647.647 0 00.038.853l.82.821.006-.005a.646.646 0 00.802-.003l.006.006.461-.462h-.001a6.765 6.765 0 00-.033-9.524zM2.254 8.44v7.12a1 1 0 001 1h2.509a1 1 0 01.7.285l5.026 4.924a.4.4 0 00.68-.286V2.516a.4.4 0 00-.68-.285L6.463 7.155a1 1 0 01-.7.285h-2.51a1 1 0 00-1 1z" fill="#469CB7"/></svg>